<svg width="25" height="23" viewBox="0 0 25 23" fill="none" xmlns="http://www.w3.org/2000/svg">
  <mask id="path-1-outside-1_285_1014" maskUnits="userSpaceOnUse" x="-0.799988" y="-0.799988"
    width="26" height="24" fill="black">
    <rect fill="white" x="-0.799988" y="-0.799988" width="26" height="24" />
    <path
      d="M10.8154 17.2771C10.8154 17.3996 10.7668 17.517 10.6802 17.6035C10.5937 17.6901 10.4763 17.7387 10.3539 17.7387H8.96924V21.8925C8.96924 22.0149 8.92062 22.1323 8.83406 22.2189C8.74751 22.3054 8.63011 22.3541 8.5077 22.3541C8.3853 22.3541 8.2679 22.3054 8.18135 22.2189C8.09479 22.1323 8.04617 22.0149 8.04617 21.8925V17.7387H6.66155C6.53914 17.7387 6.42175 17.6901 6.33519 17.6035C6.24864 17.517 6.20001 17.3996 6.20001 17.2771C6.20001 17.1547 6.24864 17.0373 6.33519 16.9508C6.42175 16.8642 6.53914 16.8156 6.66155 16.8156H10.3539C10.4763 16.8156 10.5937 16.8642 10.6802 16.9508C10.7668 17.0373 10.8154 17.1547 10.8154 17.2771ZM3.89232 16.8156C3.76991 16.8156 3.65252 16.8642 3.56596 16.9508C3.47941 17.0373 3.43078 17.1547 3.43078 17.2771V19.1233H1.12309V17.2771C1.12309 17.1547 1.07446 17.0373 0.987908 16.9508C0.901352 16.8642 0.783958 16.8156 0.661551 16.8156C0.539143 16.8156 0.421749 16.8642 0.335194 16.9508C0.248639 17.0373 0.200012 17.1547 0.200012 17.2771V21.8925C0.200012 22.0149 0.248639 22.1323 0.335194 22.2189C0.421749 22.3054 0.539143 22.3541 0.661551 22.3541C0.783958 22.3541 0.901352 22.3054 0.987908 22.2189C1.07446 22.1323 1.12309 22.0149 1.12309 21.8925V20.0464H3.43078V21.8925C3.43078 22.0149 3.47941 22.1323 3.56596 22.2189C3.65252 22.3054 3.76991 22.3541 3.89232 22.3541C4.01473 22.3541 4.13212 22.3054 4.21868 22.2189C4.30523 22.1323 4.35386 22.0149 4.35386 21.8925V17.2771C4.35386 17.1547 4.30523 17.0373 4.21868 16.9508C4.13212 16.8642 4.01473 16.8156 3.89232 16.8156ZM23.7385 21.431H21.4308V17.2771C21.4308 17.1547 21.3822 17.0373 21.2956 16.9508C21.209 16.8642 21.0917 16.8156 20.9692 16.8156C20.8468 16.8156 20.7294 16.8642 20.6429 16.9508C20.5563 17.0373 20.5077 17.1547 20.5077 17.2771V21.8925C20.5077 22.0149 20.5563 22.1323 20.6429 22.2189C20.7294 22.3054 20.8468 22.3541 20.9692 22.3541H23.7385C23.8609 22.3541 23.9783 22.3054 24.0648 22.2189C24.1514 22.1323 24.2 22.0149 24.2 21.8925C24.2 21.7701 24.1514 21.6527 24.0648 21.5662C23.9783 21.4796 23.8609 21.431 23.7385 21.431ZM17.8769 16.8387C17.783 16.8119 17.6832 16.814 17.5905 16.8449C17.4979 16.8758 17.4167 16.934 17.3577 17.0118L15.4308 19.7118L13.5039 17.0118C13.4448 16.934 13.3637 16.8758 13.271 16.8449C13.1784 16.814 13.0785 16.8119 12.9846 16.8387C12.8912 16.8681 12.8096 16.9264 12.7515 17.0052C12.6934 17.084 12.6619 17.1792 12.6616 17.2771V21.8925C12.6616 22.0149 12.7102 22.1323 12.7967 22.2189C12.8833 22.3054 13.0007 22.3541 13.1231 22.3541C13.2455 22.3541 13.3629 22.3054 13.4494 22.2189C13.536 22.1323 13.5846 22.0149 13.5846 21.8925V18.7195L15.05 20.7733C15.094 20.8329 15.1513 20.8814 15.2175 20.9148C15.2836 20.9482 15.3567 20.9656 15.4308 20.9656C15.5049 20.9656 15.5779 20.9482 15.6441 20.9148C15.7102 20.8814 15.7676 20.8329 15.8116 20.7733L17.2769 18.7195V21.8925C17.2769 22.0149 17.3256 22.1323 17.4121 22.2189C17.4987 22.3054 17.6161 22.3541 17.7385 22.3541C17.8609 22.3541 17.9783 22.3054 18.0648 22.2189C18.1514 22.1323 18.2 22.0149 18.2 21.8925V17.2771C18.1996 17.1792 18.1681 17.084 18.11 17.0052C18.052 16.9264 17.9703 16.8681 17.8769 16.8387ZM20.5077 13.1233C20.3853 13.1233 20.2679 13.0747 20.1813 12.9881C20.0948 12.9016 20.0462 12.7842 20.0462 12.6618V7.58484H14.0462C13.9238 7.58484 13.8064 7.53621 13.7198 7.44966C13.6333 7.3631 13.5846 7.24571 13.5846 7.1233V1.1233H2.96924C2.84684 1.1233 2.72944 1.17193 2.64289 1.25848C2.55633 1.34504 2.5077 1.46243 2.5077 1.58484V12.6618C2.5077 12.7842 2.45908 12.9016 2.37252 12.9881C2.28597 13.0747 2.16857 13.1233 2.04617 13.1233C1.92376 13.1233 1.80636 13.0747 1.71981 12.9881C1.63325 12.9016 1.58463 12.7842 1.58463 12.6618V1.58484C1.58463 1.21762 1.73051 0.865435 1.99017 0.605769C2.24984 0.346103 2.60202 0.200224 2.96924 0.200224H14.0462C14.1069 0.198283 14.1673 0.209675 14.2231 0.233598C14.2789 0.257521 14.3288 0.293393 14.3692 0.338686L20.8308 6.78869C20.9156 6.87999 20.9647 6.99876 20.9692 7.1233V12.6618C20.9692 12.7842 20.9206 12.9016 20.8341 12.9881C20.7475 13.0747 20.6301 13.1233 20.5077 13.1233ZM14.5077 6.66176H19.3885L14.5077 1.78099V6.66176Z" />
  </mask>
  <path
    d="M10.8154 17.2771C10.8154 17.3996 10.7668 17.517 10.6802 17.6035C10.5937 17.6901 10.4763 17.7387 10.3539 17.7387H8.96924V21.8925C8.96924 22.0149 8.92062 22.1323 8.83406 22.2189C8.74751 22.3054 8.63011 22.3541 8.5077 22.3541C8.3853 22.3541 8.2679 22.3054 8.18135 22.2189C8.09479 22.1323 8.04617 22.0149 8.04617 21.8925V17.7387H6.66155C6.53914 17.7387 6.42175 17.6901 6.33519 17.6035C6.24864 17.517 6.20001 17.3996 6.20001 17.2771C6.20001 17.1547 6.24864 17.0373 6.33519 16.9508C6.42175 16.8642 6.53914 16.8156 6.66155 16.8156H10.3539C10.4763 16.8156 10.5937 16.8642 10.6802 16.9508C10.7668 17.0373 10.8154 17.1547 10.8154 17.2771ZM3.89232 16.8156C3.76991 16.8156 3.65252 16.8642 3.56596 16.9508C3.47941 17.0373 3.43078 17.1547 3.43078 17.2771V19.1233H1.12309V17.2771C1.12309 17.1547 1.07446 17.0373 0.987908 16.9508C0.901352 16.8642 0.783958 16.8156 0.661551 16.8156C0.539143 16.8156 0.421749 16.8642 0.335194 16.9508C0.248639 17.0373 0.200012 17.1547 0.200012 17.2771V21.8925C0.200012 22.0149 0.248639 22.1323 0.335194 22.2189C0.421749 22.3054 0.539143 22.3541 0.661551 22.3541C0.783958 22.3541 0.901352 22.3054 0.987908 22.2189C1.07446 22.1323 1.12309 22.0149 1.12309 21.8925V20.0464H3.43078V21.8925C3.43078 22.0149 3.47941 22.1323 3.56596 22.2189C3.65252 22.3054 3.76991 22.3541 3.89232 22.3541C4.01473 22.3541 4.13212 22.3054 4.21868 22.2189C4.30523 22.1323 4.35386 22.0149 4.35386 21.8925V17.2771C4.35386 17.1547 4.30523 17.0373 4.21868 16.9508C4.13212 16.8642 4.01473 16.8156 3.89232 16.8156ZM23.7385 21.431H21.4308V17.2771C21.4308 17.1547 21.3822 17.0373 21.2956 16.9508C21.209 16.8642 21.0917 16.8156 20.9692 16.8156C20.8468 16.8156 20.7294 16.8642 20.6429 16.9508C20.5563 17.0373 20.5077 17.1547 20.5077 17.2771V21.8925C20.5077 22.0149 20.5563 22.1323 20.6429 22.2189C20.7294 22.3054 20.8468 22.3541 20.9692 22.3541H23.7385C23.8609 22.3541 23.9783 22.3054 24.0648 22.2189C24.1514 22.1323 24.2 22.0149 24.2 21.8925C24.2 21.7701 24.1514 21.6527 24.0648 21.5662C23.9783 21.4796 23.8609 21.431 23.7385 21.431ZM17.8769 16.8387C17.783 16.8119 17.6832 16.814 17.5905 16.8449C17.4979 16.8758 17.4167 16.934 17.3577 17.0118L15.4308 19.7118L13.5039 17.0118C13.4448 16.934 13.3637 16.8758 13.271 16.8449C13.1784 16.814 13.0785 16.8119 12.9846 16.8387C12.8912 16.8681 12.8096 16.9264 12.7515 17.0052C12.6934 17.084 12.6619 17.1792 12.6616 17.2771V21.8925C12.6616 22.0149 12.7102 22.1323 12.7967 22.2189C12.8833 22.3054 13.0007 22.3541 13.1231 22.3541C13.2455 22.3541 13.3629 22.3054 13.4494 22.2189C13.536 22.1323 13.5846 22.0149 13.5846 21.8925V18.7195L15.05 20.7733C15.094 20.8329 15.1513 20.8814 15.2175 20.9148C15.2836 20.9482 15.3567 20.9656 15.4308 20.9656C15.5049 20.9656 15.5779 20.9482 15.6441 20.9148C15.7102 20.8814 15.7676 20.8329 15.8116 20.7733L17.2769 18.7195V21.8925C17.2769 22.0149 17.3256 22.1323 17.4121 22.2189C17.4987 22.3054 17.6161 22.3541 17.7385 22.3541C17.8609 22.3541 17.9783 22.3054 18.0648 22.2189C18.1514 22.1323 18.2 22.0149 18.2 21.8925V17.2771C18.1996 17.1792 18.1681 17.084 18.11 17.0052C18.052 16.9264 17.9703 16.8681 17.8769 16.8387ZM20.5077 13.1233C20.3853 13.1233 20.2679 13.0747 20.1813 12.9881C20.0948 12.9016 20.0462 12.7842 20.0462 12.6618V7.58484H14.0462C13.9238 7.58484 13.8064 7.53621 13.7198 7.44966C13.6333 7.3631 13.5846 7.24571 13.5846 7.1233V1.1233H2.96924C2.84684 1.1233 2.72944 1.17193 2.64289 1.25848C2.55633 1.34504 2.5077 1.46243 2.5077 1.58484V12.6618C2.5077 12.7842 2.45908 12.9016 2.37252 12.9881C2.28597 13.0747 2.16857 13.1233 2.04617 13.1233C1.92376 13.1233 1.80636 13.0747 1.71981 12.9881C1.63325 12.9016 1.58463 12.7842 1.58463 12.6618V1.58484C1.58463 1.21762 1.73051 0.865435 1.99017 0.605769C2.24984 0.346103 2.60202 0.200224 2.96924 0.200224H14.0462C14.1069 0.198283 14.1673 0.209675 14.2231 0.233598C14.2789 0.257521 14.3288 0.293393 14.3692 0.338686L20.8308 6.78869C20.9156 6.87999 20.9647 6.99876 20.9692 7.1233V12.6618C20.9692 12.7842 20.9206 12.9016 20.8341 12.9881C20.7475 13.0747 20.6301 13.1233 20.5077 13.1233ZM14.5077 6.66176H19.3885L14.5077 1.78099V6.66176Z"
    fill="white" />
  <path
    d="M10.8154 17.2771C10.8154 17.3996 10.7668 17.517 10.6802 17.6035C10.5937 17.6901 10.4763 17.7387 10.3539 17.7387H8.96924V21.8925C8.96924 22.0149 8.92062 22.1323 8.83406 22.2189C8.74751 22.3054 8.63011 22.3541 8.5077 22.3541C8.3853 22.3541 8.2679 22.3054 8.18135 22.2189C8.09479 22.1323 8.04617 22.0149 8.04617 21.8925V17.7387H6.66155C6.53914 17.7387 6.42175 17.6901 6.33519 17.6035C6.24864 17.517 6.20001 17.3996 6.20001 17.2771C6.20001 17.1547 6.24864 17.0373 6.33519 16.9508C6.42175 16.8642 6.53914 16.8156 6.66155 16.8156H10.3539C10.4763 16.8156 10.5937 16.8642 10.6802 16.9508C10.7668 17.0373 10.8154 17.1547 10.8154 17.2771ZM3.89232 16.8156C3.76991 16.8156 3.65252 16.8642 3.56596 16.9508C3.47941 17.0373 3.43078 17.1547 3.43078 17.2771V19.1233H1.12309V17.2771C1.12309 17.1547 1.07446 17.0373 0.987908 16.9508C0.901352 16.8642 0.783958 16.8156 0.661551 16.8156C0.539143 16.8156 0.421749 16.8642 0.335194 16.9508C0.248639 17.0373 0.200012 17.1547 0.200012 17.2771V21.8925C0.200012 22.0149 0.248639 22.1323 0.335194 22.2189C0.421749 22.3054 0.539143 22.3541 0.661551 22.3541C0.783958 22.3541 0.901352 22.3054 0.987908 22.2189C1.07446 22.1323 1.12309 22.0149 1.12309 21.8925V20.0464H3.43078V21.8925C3.43078 22.0149 3.47941 22.1323 3.56596 22.2189C3.65252 22.3054 3.76991 22.3541 3.89232 22.3541C4.01473 22.3541 4.13212 22.3054 4.21868 22.2189C4.30523 22.1323 4.35386 22.0149 4.35386 21.8925V17.2771C4.35386 17.1547 4.30523 17.0373 4.21868 16.9508C4.13212 16.8642 4.01473 16.8156 3.89232 16.8156ZM23.7385 21.431H21.4308V17.2771C21.4308 17.1547 21.3822 17.0373 21.2956 16.9508C21.209 16.8642 21.0917 16.8156 20.9692 16.8156C20.8468 16.8156 20.7294 16.8642 20.6429 16.9508C20.5563 17.0373 20.5077 17.1547 20.5077 17.2771V21.8925C20.5077 22.0149 20.5563 22.1323 20.6429 22.2189C20.7294 22.3054 20.8468 22.3541 20.9692 22.3541H23.7385C23.8609 22.3541 23.9783 22.3054 24.0648 22.2189C24.1514 22.1323 24.2 22.0149 24.2 21.8925C24.2 21.7701 24.1514 21.6527 24.0648 21.5662C23.9783 21.4796 23.8609 21.431 23.7385 21.431ZM17.8769 16.8387C17.783 16.8119 17.6832 16.814 17.5905 16.8449C17.4979 16.8758 17.4167 16.934 17.3577 17.0118L15.4308 19.7118L13.5039 17.0118C13.4448 16.934 13.3637 16.8758 13.271 16.8449C13.1784 16.814 13.0785 16.8119 12.9846 16.8387C12.8912 16.8681 12.8096 16.9264 12.7515 17.0052C12.6934 17.084 12.6619 17.1792 12.6616 17.2771V21.8925C12.6616 22.0149 12.7102 22.1323 12.7967 22.2189C12.8833 22.3054 13.0007 22.3541 13.1231 22.3541C13.2455 22.3541 13.3629 22.3054 13.4494 22.2189C13.536 22.1323 13.5846 22.0149 13.5846 21.8925V18.7195L15.05 20.7733C15.094 20.8329 15.1513 20.8814 15.2175 20.9148C15.2836 20.9482 15.3567 20.9656 15.4308 20.9656C15.5049 20.9656 15.5779 20.9482 15.6441 20.9148C15.7102 20.8814 15.7676 20.8329 15.8116 20.7733L17.2769 18.7195V21.8925C17.2769 22.0149 17.3256 22.1323 17.4121 22.2189C17.4987 22.3054 17.6161 22.3541 17.7385 22.3541C17.8609 22.3541 17.9783 22.3054 18.0648 22.2189C18.1514 22.1323 18.2 22.0149 18.2 21.8925V17.2771C18.1996 17.1792 18.1681 17.084 18.11 17.0052C18.052 16.9264 17.9703 16.8681 17.8769 16.8387ZM20.5077 13.1233C20.3853 13.1233 20.2679 13.0747 20.1813 12.9881C20.0948 12.9016 20.0462 12.7842 20.0462 12.6618V7.58484H14.0462C13.9238 7.58484 13.8064 7.53621 13.7198 7.44966C13.6333 7.3631 13.5846 7.24571 13.5846 7.1233V1.1233H2.96924C2.84684 1.1233 2.72944 1.17193 2.64289 1.25848C2.55633 1.34504 2.5077 1.46243 2.5077 1.58484V12.6618C2.5077 12.7842 2.45908 12.9016 2.37252 12.9881C2.28597 13.0747 2.16857 13.1233 2.04617 13.1233C1.92376 13.1233 1.80636 13.0747 1.71981 12.9881C1.63325 12.9016 1.58463 12.7842 1.58463 12.6618V1.58484C1.58463 1.21762 1.73051 0.865435 1.99017 0.605769C2.24984 0.346103 2.60202 0.200224 2.96924 0.200224H14.0462C14.1069 0.198283 14.1673 0.209675 14.2231 0.233598C14.2789 0.257521 14.3288 0.293393 14.3692 0.338686L20.8308 6.78869C20.9156 6.87999 20.9647 6.99876 20.9692 7.1233V12.6618C20.9692 12.7842 20.9206 12.9016 20.8341 12.9881C20.7475 13.0747 20.6301 13.1233 20.5077 13.1233ZM14.5077 6.66176H19.3885L14.5077 1.78099V6.66176Z"
    stroke="white" stroke-width="0.4" mask="url(#path-1-outside-1_285_1014)" />
</svg>