<svg width="17" height="27" viewBox="0 0 17 27" fill="none" xmlns="http://www.w3.org/2000/svg">
  <path
    d="M14.0545 0.100393C14.7133 0.103695 15.3445 0.366941 15.8104 0.832815C16.276 1.29859 16.5394 1.92913 16.5428 2.5877V23.6092C16.5394 24.2678 16.276 24.8983 15.8104 25.3641C15.3445 25.8299 14.7133 26.0932 14.0545 26.0965H2.58771C1.92898 26.0931 1.29863 25.8299 0.832825 25.3641C0.367019 24.8983 0.10378 24.2679 0.100403 23.6092V2.5877C0.10378 1.92897 0.367019 1.29862 0.832825 0.832815C1.29863 0.367009 1.92898 0.10377 2.58771 0.100393H14.0545ZM1.25568 23.6082C1.25568 23.9618 1.39629 24.3006 1.6463 24.5506C1.89632 24.8006 2.23511 24.9412 2.58868 24.9412H14.0535C14.4071 24.9412 14.7469 24.8006 14.9969 24.5506C15.2467 24.3006 15.3875 23.9616 15.3875 23.6082V22.2752H1.25568V23.6082ZM1.25568 21.1199H15.3875V5.07696H1.25568V21.1199ZM2.58868 1.25567C2.23511 1.25567 1.89632 1.39628 1.6463 1.64629C1.39629 1.89631 1.25568 2.2351 1.25568 2.58867V3.92168H15.3875V2.58867C15.3875 2.23526 15.2467 1.89627 14.9969 1.64629C14.7469 1.39628 14.4071 1.25567 14.0535 1.25567H2.58868Z"
    fill="white" stroke="white" stroke-width="0.2" />
</svg>